# xmcd
#
# Track frame offsets:
#	150
#	23918
#	41360
#	52725
#	72819
#	84459
#	102932
#	116139
#	129881
#	145277
#	163433
#	180399
#	192730
#	206055
#
# Disc length: 2969 seconds
# Revision: 0
# Processed by: cddbd v1.5.2PL0 Copyright (c) Steve Scherf et al.
# Submitted via: dBpowerAMP V12.0
#
DISCID=c40b970e
DTITLE=The Del McCoury Band - Del Mccoury Still Sings Bluegrass
DYEAR=2018
DGENRE=Bluegrass
TTITLE0=Hot Wired
TTITLE1=That Ol' Train
TTITLE2=Letters Have No Arms
TTITLE3=First One Back in Town
TTITLE4=Build It Up
TTITLE5=Bottom Dollar
TTITLE6=Deep Dark Hollow Road
TTITLE7=Ace of Hearts
TTITLE8=To Make Love Sweeter for You
TTITLE9=Joe
TTITLE10=Love Love Love
TTITLE11=I'll Be on My Way
TTITLE12=You Could Be Me
TTITLE13=I Fell in Love
EXTD=
EXTT0=
EXTT1=
EXTT2=
EXTT3=
EXTT4=
EXTT5=
EXTT6=
EXTT7=
EXTT8=
EXTT9=
EXTT10=
EXTT11=
EXTT12=
EXTT13=
PLAYORDER=
